<?xml version="1.0" encoding="UTF-8" standalone="no"?>
<!-- Created with Inkscape (http://www.inkscape.org/) -->

<svg
   xmlns:dc="http://purl.org/dc/elements/1.1/"
   xmlns:cc="http://creativecommons.org/ns#"
   xmlns:rdf="http://www.w3.org/1999/02/22-rdf-syntax-ns#"
   xmlns:svg="http://www.w3.org/2000/svg"
   xmlns="http://www.w3.org/2000/svg"
   xmlns:sodipodi="http://sodipodi.sourceforge.net/DTD/sodipodi-0.dtd"
   xmlns:inkscape="http://www.inkscape.org/namespaces/inkscape"
   width="200"
   height="200"
   id="svg3133"
   version="1.1"
   inkscape:version="0.48.3.1 r9886"
   sodipodi:docname="Nouveau document 2">
  <defs
     id="defs3135" />
  <sodipodi:namedview
     id="base"
     pagecolor="#ffffff"
     bordercolor="#666666"
     borderopacity="1.0"
     inkscape:pageopacity="0.0"
     inkscape:pageshadow="2"
     inkscape:zoom="2.825"
     inkscape:cx="100"
     inkscape:cy="100"
     inkscape:document-units="px"
     inkscape:current-layer="g4554"
     showgrid="false"
     inkscape:window-width="1280"
     inkscape:window-height="751"
     inkscape:window-x="0"
     inkscape:window-y="29"
     inkscape:window-maximized="1" />
  <metadata
     id="metadata3138">
    <rdf:RDF>
      <cc:Work
         rdf:about="">
        <dc:format>image/svg+xml</dc:format>
        <dc:type
           rdf:resource="http://purl.org/dc/dcmitype/StillImage" />
        <dc:title></dc:title>
      </cc:Work>
    </rdf:RDF>
  </metadata>
  <g
     id="layer1"
     inkscape:label="Layer 1"
     inkscape:groupmode="layer"
     transform="translate(0,140)">
    <g
       transform="translate(-271.58959,-954.10428)"
       id="g4554"
       inkscape:export-filename="/media/DATA/Doc/Blender-Brussels/bpy-bge-library/users/juego/logo/blender-brussels-logo.png"
       inkscape:export-xdpi="198.99001"
       inkscape:export-ydpi="198.99001">
      <path
         inkscape:export-ydpi="198.98816"
         inkscape:export-xdpi="198.98816"
         inkscape:export-filename="/media/DATA/Doc/Blender-Brussels/bpy-bge-library/users/juego/logo/blender-brussels-logo.png"
         transform="matrix(0.92857143,0,0,0.92857143,158.82564,307.97566)"
         d="m 327.03919,652.26105 c 0,53.80133 -43.6146,97.41593 -97.41593,97.41593 -53.80133,0 -97.41593,-43.6146 -97.41593,-97.41593 0,-53.80134 43.6146,-97.41593 97.41593,-97.41593 53.80133,0 97.41593,43.61459 97.41593,97.41593 z"
         sodipodi:ry="97.415932"
         sodipodi:rx="97.415932"
         sodipodi:cy="652.26105"
         sodipodi:cx="229.62326"
         id="path4260-1-0-6-0"
         style="color:#000000;fill:#828282;fill-opacity:1;fill-rule:nonzero;stroke:none;stroke-width:4.30769253;marker:none;visibility:visible;display:inline;overflow:visible;enable-background:accumulate"
         sodipodi:type="arc" />
      <path
         sodipodi:nodetypes="cssssccccccccccccccccccsccccsccsc"
         inkscape:connector-curvature="0"
         id="path3028-11-5-7-6"
         d="m 400.44013,886.3527 0,11.90625 c 0,9.23076 -7.8259,17 -16.75,17 l -26.78125,0 c -7.33584,0 -13.40625,6.27849 -13.40625,13.625 l 0,24.125 -12.625,-6 c -3.0089,-1.40674 -6.38705,-0.55168 -7.46875,1.875 -1.06864,2.38518 0.51739,5.34001 3.46875,6.625 0.0375,0.0181 0.0551,0.0447 0.0937,0.0625 l 31.3125,13.6875 -14.75,3.59375 0,0.0313 c -2.4977,0.62616 -3.69266,2.71095 -2.71875,4.625 0.94946,1.88172 3.62695,2.87498 6.03125,2.28125 0.0114,-0.002 0.0484,0.003 0.0625,0 l 29.09375,-7.15625 -7.625,10.125 c -1.18258,1.58668 -0.5214,3.46549 1.4375,4.21875 1.93529,0.74648 4.47053,0.11902 5.6875,-1.40625 0.0188,-0.0185 0.0156,-0.0422 0.0313,-0.0625 l 18.53125,-23.21875 c -0.0208,0.0105 -0.0416,0.0208 -0.0625,0.0313 1.88516,-2.04968 3.09375,-4.63345 3.09375,-7.90625 l 0,-10.21875 -26.78125,0 0,-3.40625 26.78125,0 13.40625,0 c 7.79246,0 10.69626,-5.4354 13.40625,-13.59375 2.79933,-8.39888 2.68022,-16.47577 0,-27.25 -1.92578,-7.75744 -5.60388,-13.59375 -13.40625,-13.59375 z"
         style="fill:#ffffff;fill-opacity:1;fill-rule:nonzero;stroke:none"
         inkscape:export-filename="/media/DATA/Doc/Blender-Brussels/bpy-bge-library/users/juego/logo/blender-brussels-logo.png"
         inkscape:export-xdpi="198"
         inkscape:export-ydpi="198" />
      <path
         sodipodi:nodetypes="cssssccccccccccccccccccsccccsccscc"
         id="path3028-11-3-9-6-0"
         d="m 340.33574,940.49828 0,-11.90625 c 0,-9.23076 7.8259,-17 16.75,-17 l 26.78125,0 c 7.33584,0 13.40625,-6.27849 13.40625,-13.625 l 0,-24.125 12.625,6 c 3.0089,1.40674 6.38705,0.55168 7.46875,-1.875 1.06864,-2.38518 -0.51739,-5.34001 -3.46875,-6.625 -0.0375,-0.0181 -0.0551,-0.0447 -0.0937,-0.0625 l -31.3125,-13.6875 14.75,-3.59375 0,-0.0313 c 2.4977,-0.62616 3.69266,-2.71095 2.71875,-4.625 -0.94946,-1.88172 -3.62695,-2.87498 -6.03125,-2.28125 -0.0114,0.002 -0.0484,-0.003 -0.0625,0 l -29.09375,7.15625 7.625,-10.125 c 1.18258,-1.58668 0.5214,-3.46549 -1.4375,-4.21875 -1.93529,-0.74648 -4.47053,-0.11902 -5.6875,1.40625 -0.0188,0.0185 -0.0156,0.0422 -0.0313,0.0625 l -18.53125,23.21875 c 0.0208,-0.0105 0.0416,-0.0208 0.0625,-0.0313 -1.88516,2.04968 -3.09375,4.63345 -3.09375,7.90625 l 0,10.21875 26.78125,0 0,3.40625 -26.78125,0 -13.40625,0 c -7.79246,0 -10.69626,5.4354 -13.40625,13.59375 -2.79933,8.39888 -2.68022,16.47577 0,27.25 1.92578,7.75744 5.60388,13.59375 13.40625,13.59375 l 10.0625,0 z"
         style="fill:#000000;fill-opacity:1;stroke:none"
         inkscape:connector-curvature="0"
         inkscape:export-filename="/media/DATA/Doc/Blender-Brussels/bpy-bge-library/users/juego/logo/blender-brussels-logo.png"
         inkscape:export-xdpi="198"
         inkscape:export-ydpi="198" />
      <path
         sodipodi:nodetypes="sssss"
         id="path3028-11-4-6-1-9"
         d="m 385.37763,951.00895 c 2.77947,10e-6 5.03125,2.27742 5.03125,5.09375 -1e-5,2.82635 -2.25178,5.125 -5.03125,5.125 -2.76955,0 -5.03125,-2.29865 -5.03125,-5.125 0,-2.81633 2.26169,-5.09375 5.03125,-5.09375 z"
         style="fill:#000000;fill-opacity:1;fill-rule:nonzero;stroke:none"
         inkscape:connector-curvature="0"
         inkscape:export-filename="/media/DATA/Doc/Blender-Brussels/bpy-bge-library/users/juego/logo/blender-brussels-logo.png"
         inkscape:export-xdpi="198"
         inkscape:export-ydpi="198" />
      <path
         sodipodi:nodetypes="sssss"
         id="path3028-11-4-5-3-0-2"
         d="m 355.39013,865.62738 c 2.77947,10e-6 5.03125,2.27742 5.03125,5.09375 -10e-6,2.82635 -2.25178,5.125 -5.03125,5.125 -2.76955,0 -5.03125,-2.29865 -5.03125,-5.125 0,-2.81633 2.26169,-5.09375 5.03125,-5.09375 z"
         style="fill:#ffffff;fill-opacity:1;fill-rule:nonzero;stroke:none"
         inkscape:connector-curvature="0"
         inkscape:export-filename="/media/DATA/Doc/Blender-Brussels/bpy-bge-library/users/juego/logo/blender-brussels-logo.png"
         inkscape:export-xdpi="198"
         inkscape:export-ydpi="198" />
    </g>
  </g>
</svg>
